# xmcd
#
# Track frame offsets: 
#        150
#        22852
#        37027
#        56035
#        78547
#        101890
#        138247
#        160067
#        180142
#        196285
#        210357
#        230280
#        251295
#        268922
#        295157
#        322227
#
# Disc length: 4619 seconds
#
# Revision: 1
# Processed by: cddbd v1.5.2PL0 Copyright (c) Steve Scherf et al.
# Submitted via: ExactAudioCopy v0.99pb5
#
DISCID=da120910
DTITLE=Various Artist - California Jam 2 [CD6)
DYEAR=1978
DGENRE=Rock
TTITLE0=Aerosmith - Rats In The Cellar
TTITLE1=Aerosmith - I Wanna Know Why
TTITLE2=Aerosmith - Big Ten Inch Record
TTITLE3=Aerosmith - Seasons Of Wither
TTITLE4=Aerosmith - Sweet Emotion
TTITLE5=Aerosmith - Lord Of The Thighs
TTITLE6=Aerosmith - Dream On
TTITLE7=Aerosmith - Chip Away The Stone
TTITLE8=Aerosmith - Lick And A Promise
TTITLE9=Aerosmith - Get The Lead Out
TTITLE10=Aerosmith - Get It Up
TTITLE11=Aerosmith - Draw The Line
TTITLE12=Aerosmith - No More No More
TTITLE13=Aerosmith - Same Old Song And Dance
TTITLE14=Aerosmith with Ted Nugent - Milk Cow Blues
TTITLE15=Aerosmith - Train Kept A Rollin'
EXTD=
EXTT0=
EXTT1=
EXTT2=
EXTT3=
EXTT4=
EXTT5=
EXTT6=
EXTT7=
EXTT8=
EXTT9=
EXTT10=
EXTT11=
EXTT12=
EXTT13=
EXTT14=
EXTT15=
PLAYORDER=
